P2
#imagem9.pgm
60 100
255
42 43 13 22 24 35 34 0 7 23 23 46 18 22 12 15 51 10 48 10 13 13 26 38 39 13 17 30 22 55 44 49 27 2 55 51 21 33 51 12 1 2 3 3 8 55 18 3 50 10 13 7 7 23 45 30 21 46 4 43 
46 33 20 17 35 19 12 40 37 47 36 38 33 39 41 41 23 44 29 17 38 26 24 30 50 53 4 55 43 9 26 17 26 47 18 45 50 14 29 31 45 9 13 22 33 39 48 0 11 21 1 49 31 25 23 9 22 28 8 49 
21 35 51 31 26 13 20 4 28 49 36 1 42 33 24 19 0 0 3 11 5 4 45 36 29 52 46 35 8 54 13 13 33 8 44 43 5 8 48 17 41 28 19 28 45 43 31 46 43 35 41 48 39 14 28 53 11 2 16 3 
1 13 17 18 21 45 6 11 54 38 28 23 50 47 51 39 34 27 13 5 46 55 37 13 13 50 10 8 52 11 12 53 8 13 0 30 42 46 41 40 28 13 48 22 45 43 45 23 14 3 13 4 2 50 18 55 44 12 48 41 
7 44 22 16 1 6 30 27 52 55 52 24 52 44 30 41 31 20 49 30 23 6 18 25 0 20 8 29 17 0 54 24 44 4 24 29 11 38 1 7 37 53 16 18 41 46 3 0 10 36 30 33 42 49 42 27 53 51 40 14 
35 38 23 8 42 47 21 37 14 22 45 35 3 5 53 28 51 41 13 6 21 43 23 48 20 10 3 18 5 43 16 24 25 39 32 51 15 54 33 29 4 22 8 48 11 46 4 46 15 17 36 20 5 4 12 9 14 15 11 3 
42 28 27 11 51 44 47 10 42 24 23 30 30 16 22 25 6 27 15 21 44 52 25 33 0 38 27 54 37 38 1 8 50 12 3 46 0 50 0 26 2 24 1 32 40 7 1 30 18 1 35 47 37 4 24 21 26 35 19 48 
18 4 0 12 0 3 2 1 54 43 11 0 51 52 17 19 4 2 49 6 43 12 53 24 0 6 45 27 41 48 3 3 52 3 0 53 6 42 38 44 29 49 29 24 30 46 27 18 32 20 24 20 16 22 44 17 28 18 28 53 
10 31 1 7 34 41 44 24 27 26 13 41 3 26 49 17 16 21 35 32 25 4 52 42 10 25 43 38 43 15 35 53 30 20 44 8 45 32 16 17 42 13 42 30 39 35 47 39 40 27 16 10 15 12 36 25 37 7 47 8 
6 10 6 36 15 34 28 4 11 28 5 37 42 47 51 25 11 27 9 51 38 9 45 53 21 9 22 43 0 53 51 6 7 41 26 22 20 54 11 15 11 16 36 53 48 32 6 3 43 55 38 25 8 28 22 14 21 28 1 22 
25 36 12 16 6 39 23 26 21 34 25 32 50 5 29 26 21 20 29 8 19 52 17 28 24 39 42 29 51 27 35 4 47 48 21 53 31 44 7 36 6 32 53 40 22 10 11 27 30 40 20 50 20 37 22 44 5 48 2 0 
19 37 5 50 13 10 48 28 38 55 9 44 16 6 28 22 16 39 49 47 8 13 25 28 35 47 1 40 23 43 24 26 8 13 20 22 23 12 50 5 52 43 33 12 33 46 18 34 13 11 25 5 9 34 18 44 9 3 28 32 
46 52 2 54 10 22 4 17 19 39 7 15 26 40 11 44 30 29 22 44 24 31 49 33 9 51 21 18 54 49 50 44 46 36 27 40 2 15 1 21 54 8 20 9 33 31 53 47 44 19 35 13 50 13 46 3 8 12 21 47 
45 55 35 35 35 46 3 21 6 45 27 4 53 47 13 14 7 50 6 35 13 25 48 7 22 23 10 15 35 15 6 24 54 41 44 17 16 31 39 22 20 10 10 2 41 8 16 48 2 22 28 16 32 4 7 54 27 2 13 46 
17 19 55 0 45 43 17 45 18 0 51 23 50 5 25 36 53 25 12 0 32 24 0 8 29 7 46 40 9 4 31 11 7 30 11 36 1 12 25 3 13 20 26 7 10 35 27 7 5 40 7 37 8 47 29 21 39 19 6 32 
7 37 43 15 51 38 51 52 51 5 55 48 25 10 39 35 45 11 43 50 35 34 15 27 10 28 49 49 32 39 25 39 20 53 38 55 19 18 51 54 23 34 30 32 44 54 12 34 49 39 12 28 1 12 55 51 40 32 28 0 
15 38 40 19 35 22 18 38 40 53 21 47 32 51 24 20 49 20 54 42 43 51 54 44 7 38 24 31 54 52 32 14 34 0 17 53 22 20 36 47 17 41 22 33 20 46 54 54 10 36 24 53 31 23 26 22 45 50 54 43 
30 14 41 9 14 3 6 20 7 26 11 8 51 34 42 16 8 40 14 3 4 38 0 20 45 10 42 34 44 24 22 19 38 7 12 36 50 2 1 1 13 52 50 8 14 36 24 23 4 22 26 8 5 10 28 50 21 55 29 49 
23 35 52 46 42 8 26 21 51 27 6 8 24 0 16 38 36 25 45 24 47 15 33 36 26 45 31 31 28 44 8 36 23 5 26 49 53 52 54 48 8 5 40 16 5 41 54 26 10 28 50 41 43 11 22 53 41 37 12 13 
25 21 49 32 10 3 9 47 40 8 24 48 53 8 8 42 33 46 12 43 2 47 29 46 42 35 27 27 16 24 25 25 29 2 1 39 46 50 14 30 42 38 6 39 31 14 26 8 44 22 36 47 53 9 21 40 28 32 51 44 
102 55 89 68 77 101 83 95 85 79 100 69 88 85 95 48 57 80 71 81 75 105 67 81 103 64 53 62 68 67 69 64 77 52 90 48 47 67 100 89 103 94 52 88 75 105 91 89 79 56 65 48 57 87 85 56 48 95 73 71 
56 99 92 89 45 78 94 49 101 89 94 98 79 103 80 51 102 68 95 76 81 54 79 94 99 60 105 102 50 75 69 61 68 55 46 71 91 98 75 86 81 63 80 56 61 57 62 57 82 52 90 57 63 64 47 58 81 49 54 86 
79 78 105 104 91 47 71 78 100 102 60 77 61 95 91 79 48 49 94 87 56 78 100 77 99 102 90 75 45 102 57 81 76 58 82 63 61 47 96 57 45 50 92 62 103 79 96 47 83 84 90 97 59 84 68 52 82 54 82 85 
52 97 60 86 49 99 104 67 102 97 80 102 102 68 60 101 102 53 104 79 94 90 70 47 70 95 55 46 46 94 86 53 85 104 94 90 97 95 51 93 86 88 92 84 52 48 80 48 56 80 85 45 64 51 49 89 102 61 92 103 
50 75 52 92 73 104 78 64 95 87 54 75 71 103 55 79 45 90 84 59 66 63 61 87 70 67 72 68 84 59 67 91 89 74 77 58 74 52 79 63 94 90 95 59 87 45 95 90 92 74 45 53 94 61 95 58 83 62 83 63 
78 105 48 63 76 83 76 105 90 51 63 80 97 54 94 78 54 86 64 102 54 64 51 103 82 103 58 60 61 96 80 94 96 84 53 66 61 86 67 47 93 87 82 84 97 72 58 45 52 78 104 61 99 51 61 76 49 74 93 65 
66 67 56 58 45 64 81 63 45 104 67 95 85 104 73 76 71 88 79 80 60 79 97 56 86 54 87 90 85 74 51 45 98 62 61 101 84 97 60 86 95 83 75 77 83 105 49 48 87 83 86 105 59 77 55 100 88 99 86 67 
67 92 69 61 51 85 56 90 77 72 70 66 49 102 98 87 101 103 93 82 82 73 83 98 46 95 92 89 88 74 50 51 63 74 68 69 54 79 53 88 45 80 48 51 76 104 94 71 103 81 49 81 50 90 74 51 79 62 97 64 
92 102 70 49 72 93 75 83 69 85 65 69 59 71 78 92 71 66 59 68 104 65 45 48 49 76 56 86 94 47 105 80 45 69 86 72 59 55 52 83 97 72 48 50 100 81 99 65 104 52 90 102 72 91 46 77 61 57 59 51 
59 58 88 61 84 68 89 98 80 98 77 71 64 83 78 61 60 71 81 59 80 68 57 47 55 59 81 71 71 95 80 88 49 62 104 88 88 89 83 64 81 54 93 103 92 65 58 47 94 96 63 68 58 75 72 68 89 47 97 57 
99 71 102 103 90 102 88 72 88 65 94 63 76 81 62 63 103 77 67 91 70 85 56 83 56 85 48 101 90 102 54 83 69 50 83 53 46 65 83 89 87 71 49 57 46 68 77 104 101 101 92 65 82 105 105 94 84 49 89 68 
45 100 48 69 105 86 78 47 47 55 94 91 83 100 103 84 62 75 84 59 72 72 81 49 71 83 98 52 87 83 75 88 77 78 53 78 60 86 82 64 98 70 49 77 66 47 57 86 79 97 102 45 65 78 49 92 57 104 101 101 
81 72 85 54 45 94 87 62 76 64 84 69 91 88 103 54 92 55 95 67 46 91 68 68 65 74 56 77 73 51 75 50 79 54 62 81 103 104 100 74 64 78 100 52 61 97 61 47 46 52 70 49 98 95 73 58 65 84 92 95 
93 61 101 66 73 59 104 70 59 98 101 79 71 95 88 87 89 45 91 92 52 57 97 105 48 66 59 69 46 48 58 96 64 55 56 94 69 54 59 84 47 54 59 75 46 104 56 90 104 104 76 50 56 69 51 59 92 68 85 96 
71 99 86 92 50 98 81 75 48 97 53 52 45 69 82 48 67 95 93 65 94 66 72 46 92 80 62 79 103 103 69 70 96 49 57 101 104 95 72 49 86 82 56 86 45 96 92 69 85 81 91 73 102 59 74 91 95 94 66 94 
91 90 59 83 96 73 80 97 62 47 101 103 86 53 85 87 104 71 52 84 47 99 53 45 52 85 93 102 73 53 93 58 98 46 98 91 76 72 84 93 76 81 90 57 89 71 101 88 100 47 68 104 101 76 104 50 57 92 48 85 
102 96 100 95 99 92 82 69 59 60 56 90 98 103 102 81 71 99 65 65 102 88 63 99 61 63 104 73 51 49 55 48 100 49 100 94 97 78 59 52 95 73 97 87 70 96 62 96 89 83 57 87 67 75 83 85 96 83 53 102 
87 63 105 82 69 101 72 60 73 86 67 62 53 61 104 81 53 61 73 99 101 86 81 64 57 60 105 47 98 54 46 80 72 47 58 98 104 85 53 71 67 77 89 78 93 89 53 103 46 83 97 102 65 74 61 78 89 62 82 81 
71 83 57 100 88 70 92 86 51 100 53 74 74 97 46 63 83 56 61 84 96 52 81 56 81 99 89 66 55 67 104 83 47 56 77 90 83 63 70 90 58 78 58 89 72 61 46 51 74 62 90 64 69 67 75 46 62 60 69 74 
85 68 51 87 81 83 73 58 102 98 105 56 72 59 100 101 75 101 46 45 58 92 65 84 55 97 88 73 54 51 102 94 76 48 77 53 86 105 69 82 99 68 95 67 85 89 63 56 87 66 57 102 54 79 80 65 72 64 93 81 
123 141 121 95 144 153 104 127 152 130 105 147 155 95 109 134 141 129 146 122 150 97 118 99 131 95 121 99 114 110 136 144 95 101 145 147 101 154 118 99 130 130 152 129 132 105 108 118 139 98 147 135 102 112 139 140 112 104 144 133 
121 124 122 122 133 111 115 139 111 140 143 146 114 141 119 152 153 132 116 136 137 107 116 144 124 101 128 141 113 117 121 139 148 148 107 127 103 127 112 121 111 102 111 131 148 135 129 146 114 150 128 97 101 151 147 133 97 121 118 117 
145 146 102 140 138 115 111 148 147 129 113 105 136 131 141 130 113 116 122 134 110 95 136 118 153 129 95 96 95 121 118 147 111 126 131 155 146 150 149 139 125 109 149 107 145 136 142 102 96 109 143 111 111 124 135 108 97 137 110 99 
102 133 152 119 105 129 120 97 123 113 144 153 129 137 104 119 120 154 128 121 107 116 140 125 147 121 138 149 102 155 95 110 135 152 136 145 127 100 150 95 120 138 155 155 121 106 118 146 104 153 114 118 115 98 148 106 126 132 102 133 
132 102 150 111 100 130 102 132 137 96 134 102 141 136 101 107 147 126 97 95 123 116 120 146 121 114 96 152 151 103 132 129 112 128 147 117 103 155 96 145 97 135 154 144 115 99 97 108 130 99 110 100 123 135 151 149 95 154 148 154 
102 124 127 121 96 121 144 106 122 147 98 124 126 96 114 149 101 118 103 138 123 119 145 153 100 140 146 101 139 140 99 148 108 133 113 112 98 103 123 125 155 128 96 126 130 117 121 138 141 129 122 110 153 112 107 100 96 99 106 142 
145 110 134 99 150 153 116 154 100 147 123 100 119 126 133 95 149 100 138 134 136 105 149 136 124 102 141 125 106 152 112 97 108 153 102 102 152 125 100 99 118 131 104 145 101 144 145 96 151 130 137 131 142 132 111 110 139 96 142 153 
153 100 155 107 98 103 115 155 136 122 98 98 99 109 148 108 99 140 111 155 114 154 131 102 130 147 117 116 151 105 113 148 111 114 102 114 123 124 115 103 153 119 108 99 135 101 112 140 146 128 141 106 128 116 113 103 110 137 124 105 
147 144 99 102 102 108 123 132 137 144 140 135 109 154 139 149 101 97 135 152 132 123 104 105 146 124 115 100 105 146 112 98 134 119 108 143 132 136 120 116 126 106 97 140 104 143 136 112 145 117 110 123 145 119 135 136 148 155 143 99 
147 102 103 127 126 118 115 104 98 140 125 130 153 127 116 102 114 98 121 105 121 137 136 110 100 115 153 95 115 141 99 108 150 109 141 120 132 100 131 138 147 103 114 144 135 135 153 96 139 119 108 106 102 149 121 109 109 121 109 131 
108 116 144 102 132 131 129 111 136 104 154 129 112 112 120 155 154 117 97 139 143 112 150 150 106 118 104 122 144 120 99 96 143 150 103 120 126 137 136 106 148 136 143 105 153 107 106 153 129 108 137 119 125 133 115 138 95 126 104 144 
152 110 147 141 105 96 105 136 140 148 149 135 128 136 145 127 148 95 125 124 110 108 150 142 146 109 125 147 143 136 137 141 152 131 126 103 134 139 144 119 133 139 98 106 120 150 140 114 152 111 145 108 126 141 155 117 97 124 110 145 
105 154 130 103 131 100 111 110 146 101 136 124 145 141 137 111 137 121 133 133 140 122 148 110 110 147 132 112 116 149 101 128 150 138 138 125 143 95 140 134 101 122 104 153 107 146 109 149 111 147 128 97 115 120 113 130 114 152 149 135 
148 96 109 142 139 154 111 127 154 98 107 99 125 118 96 140 108 112 135 126 103 108 129 126 135 149 102 154 145 96 135 137 97 151 123 142 149 142 115 147 145 129 153 116 152 96 100 106 113 141 137 124 95 112 155 135 105 103 136 97 
104 117 139 109 113 109 97 108 97 119 100 147 155 99 109 153 100 115 103 121 102 147 150 102 104 151 144 116 98 124 118 110 147 102 126 106 118 128 119 120 152 126 113 153 131 127 150 138 147 97 103 95 151 99 102 99 155 152 121 100 
122 146 115 115 153 146 126 117 120 153 142 118 123 101 115 100 134 111 146 127 113 154 128 110 98 135 115 99 133 143 104 100 135 126 120 133 118 154 96 145 151 146 107 120 152 129 128 132 145 118 104 104 118 139 120 123 120 142 128 98 
131 139 105 110 112 132 150 137 130 152 127 127 144 141 155 140 117 127 117 108 152 128 118 114 111 145 143 136 133 117 139 108 100 151 125 119 128 120 101 104 118 135 137 106 122 138 153 144 111 114 97 107 147 122 128 102 113 115 146 151 
137 131 105 145 127 135 110 99 99 118 108 124 97 152 135 127 136 135 117 152 154 121 105 148 148 139 96 107 100 147 102 145 123 112 134 155 153 151 100 98 114 113 128 118 112 109 150 153 149 112 152 150 138 101 142 133 147 143 145 153 
137 155 142 104 111 122 103 110 117 108 116 138 128 151 101 145 104 97 145 100 116 141 96 101 147 143 141 139 132 130 138 113 131 124 124 150 151 134 106 114 149 127 97 122 122 105 113 134 109 102 139 131 150 142 137 144 129 122 127 107 
98 109 128 137 140 96 131 137 136 142 95 129 114 99 97 141 111 116 121 126 125 106 101 122 153 145 110 128 111 144 141 116 97 115 97 144 116 133 125 98 122 127 133 141 132 135 128 150 97 96 120 130 107 126 96 105 117 113 138 133 
151 175 205 155 195 148 204 158 187 173 161 155 146 201 201 185 183 175 180 187 176 205 163 189 178 164 201 200 184 185 180 190 155 181 200 146 184 198 161 167 167 178 177 169 175 174 148 152 205 185 195 177 185 152 162 159 174 157 153 154 
198 190 200 149 165 194 152 146 189 169 168 152 204 201 176 173 171 182 183 172 161 174 205 203 183 163 156 153 176 167 163 170 151 157 176 174 147 183 175 193 148 200 201 146 197 173 177 163 151 156 190 168 185 191 167 164 149 181 173 180 
203 193 146 150 146 177 179 150 156 150 199 160 145 194 161 197 163 195 154 170 145 202 195 187 187 156 146 191 192 176 167 191 165 170 197 166 202 172 171 153 178 166 170 180 156 186 171 175 178 183 202 178 179 191 162 160 204 165 148 193 
198 170 178 157 196 171 180 194 201 147 204 175 169 168 149 180 151 177 151 184 154 147 158 190 195 175 145 194 197 148 181 189 175 155 201 167 184 177 156 181 180 154 150 204 178 156 180 186 190 187 164 202 189 177 186 179 149 186 169 201 
191 146 187 163 158 184 185 199 156 196 174 191 147 181 191 182 194 165 162 179 148 181 175 193 154 155 168 160 199 192 156 186 195 198 204 147 176 184 202 189 176 172 174 178 148 161 156 197 182 173 172 185 150 202 174 162 154 199 177 147 
187 188 188 176 182 187 181 155 167 177 199 198 204 170 171 148 188 182 203 164 152 169 146 157 168 177 176 177 171 148 181 152 193 165 186 170 148 161 182 170 195 177 163 195 204 191 199 187 169 198 147 178 161 148 193 186 183 163 157 150 
166 195 157 154 155 200 181 160 155 157 186 205 191 145 197 190 193 192 171 158 184 173 192 200 179 179 181 158 197 195 163 160 187 177 169 197 172 146 153 184 158 194 186 204 196 177 190 185 163 155 199 202 186 185 198 161 160 175 176 153 
165 194 168 146 165 194 200 194 195 147 173 149 199 153 150 191 187 195 171 205 147 164 201 190 145 195 147 160 165 178 168 185 168 194 188 190 182 184 179 174 186 146 178 181 156 183 169 198 173 195 199 177 155 196 161 155 185 163 170 205 
198 195 186 160 183 170 205 162 148 178 193 192 181 165 167 194 145 191 188 175 182 181 146 192 171 162 202 151 182 168 152 174 160 196 189 200 160 188 156 164 163 145 150 201 166 174 190 166 162 172 198 201 150 199 188 176 155 186 184 192 
151 194 160 166 184 145 160 199 188 174 159 147 174 164 204 195 196 190 157 154 156 149 149 163 205 192 195 154 175 175 203 181 163 159 202 204 161 158 198 146 187 153 148 156 175 146 147 165 193 162 174 146 168 180 164 168 169 153 179 199 
186 179 176 204 193 172 203 151 187 197 152 169 205 155 182 174 159 184 196 146 203 166 147 166 202 167 191 165 177 164 158 157 200 189 158 190 157 157 196 199 150 203 164 151 152 201 183 166 182 173 170 179 197 172 202 193 196 189 154 168 
150 169 182 205 154 197 189 166 148 179 161 155 176 183 162 186 178 200 148 156 169 173 193 160 203 191 149 193 175 158 157 180 182 197 181 191 188 165 153 194 201 172 145 172 149 162 154 184 158 157 196 183 188 183 200 185 170 205 174 200 
159 189 176 197 182 152 184 166 174 193 156 169 161 157 198 165 174 146 204 190 159 196 169 202 175 163 183 201 164 153 197 179 197 168 170 175 177 150 197 145 198 147 169 155 159 162 175 191 165 176 175 179 168 199 177 199 158 156 196 178 
165 189 151 158 151 178 189 185 183 180 187 178 184 151 188 201 170 160 186 190 191 157 166 155 152 200 148 165 151 201 198 173 185 204 186 193 178 171 175 156 147 156 189 187 162 171 182 189 186 164 176 173 176 197 184 183 191 189 205 199 
187 198 166 166 198 149 155 171 175 185 184 178 197 169 159 155 195 198 202 178 156 172 147 189 163 188 168 150 174 167 146 155 159 169 178 154 173 190 182 204 170 160 178 163 184 194 175 175 186 171 149 199 198 154 182 157 197 205 165 167 
166 168 177 183 192 151 192 160 197 170 160 163 185 193 183 165 181 152 195 163 181 202 156 175 150 195 188 204 196 149 166 156 172 200 196 160 146 184 177 200 148 192 159 190 181 197 149 158 145 202 176 181 200 189 151 146 178 196 146 168 
200 167 182 168 164 174 185 167 153 157 163 158 204 177 204 182 168 149 195 168 147 166 205 202 151 152 205 185 203 146 149 199 170 186 163 189 155 203 152 165 154 170 178 155 202 178 192 166 185 181 192 187 204 191 186 150 200 185 192 197 
188 196 192 153 179 149 199 191 148 146 150 160 173 185 170 172 158 158 193 198 196 179 181 195 166 161 202 162 204 188 153 186 178 202 194 153 147 190 199 151 193 204 166 160 186 193 187 199 145 177 193 196 152 168 185 174 185 183 191 185 
165 202 165 201 198 156 148 201 203 203 148 190 203 169 205 183 158 189 178 158 160 165 148 167 189 191 198 170 168 186 151 191 182 171 186 176 184 191 173 181 190 178 167 190 202 167 169 154 150 203 169 167 164 173 189 147 160 184 174 185 
164 180 170 201 148 152 173 189 201 204 167 185 176 189 169 175 152 194 186 159 193 150 181 151 180 167 156 197 145 185 176 164 162 204 161 167 150 189 150 147 189 172 188 160 158 153 190 165 204 170 180 191 175 157 198 151 179 148 203 181 
240 224 250 196 222 207 218 229 254 226 232 237 255 216 252 207 224 236 230 223 203 206 210 233 218 202 242 255 207 239 230 253 209 227 195 236 239 221 212 237 252 251 219 251 213 215 205 242 198 240 211 206 253 227 246 215 236 232 216 249 
218 252 246 232 223 246 215 206 213 232 251 209 229 214 207 247 236 217 235 239 203 252 252 200 225 243 222 205 221 244 198 244 242 251 221 209 244 241 222 201 219 219 216 253 238 228 246 221 250 225 206 199 223 203 204 253 253 231 205 218 
221 208 209 207 204 235 223 253 222 253 198 248 216 219 247 199 254 237 227 250 208 238 254 237 246 202 236 243 241 246 208 206 201 222 221 210 203 249 209 232 246 212 224 207 239 215 213 239 198 245 234 211 227 232 255 218 242 238 207 229 
230 222 240 236 251 205 251 200 201 204 237 252 224 207 205 209 227 223 253 230 212 231 249 247 210 248 211 196 232 225 232 207 253 216 248 248 229 246 254 237 196 237 233 225 250 244 239 221 213 237 198 231 214 252 224 229 246 240 232 225 
209 208 237 208 232 231 201 207 221 201 249 225 243 228 255 237 216 241 205 235 224 208 212 243 206 241 219 198 227 197 228 243 211 211 196 250 248 202 201 215 210 196 245 197 229 247 242 253 234 252 234 202 206 251 252 217 238 217 222 211 
220 197 198 238 213 199 232 207 208 240 228 223 241 219 228 216 210 214 213 251 210 252 199 221 249 198 245 231 220 213 249 247 215 253 229 234 198 205 248 214 252 222 242 239 247 214 200 203 235 220 199 250 217 203 217 212 206 208 251 234 
227 244 225 247 243 199 227 247 211 220 205 208 247 254 252 238 215 198 249 255 224 253 252 248 202 213 204 216 229 199 255 200 249 226 252 236 230 226 229 249 251 239 201 244 238 199 229 199 203 222 198 232 221 255 224 228 215 235 251 249 
240 252 195 235 223 252 217 197 222 254 253 219 237 198 208 221 205 244 227 213 210 231 252 238 232 222 212 252 201 208 247 248 204 247 227 232 246 252 237 214 250 234 239 233 240 254 201 250 242 233 209 198 210 205 241 248 232 197 246 238 
212 240 231 224 231 204 200 223 202 244 243 196 225 228 237 209 228 245 205 216 222 219 219 240 229 206 232 205 210 222 250 230 206 227 198 245 239 203 212 246 255 201 250 224 234 231 240 208 222 250 229 251 213 255 235 247 207 211 198 223 
241 253 197 254 227 202 243 210 212 202 200 211 208 255 240 250 232 224 202 200 218 239 196 238 238 236 229 251 253 234 220 238 234 224 236 205 231 226 220 248 235 227 204 248 229 251 244 207 222 252 213 247 237 214 230 219 255 205 214 254 
245 241 236 223 209 219 235 247 252 201 240 231 233 251 225 206 248 214 221 214 212 239 208 254 197 245 217 198 255 239 197 246 226 238 215 241 203 255 234 201 200 218 237 239 215 207 252 208 228 217 229 245 202 242 245 204 231 208 208 233 
252 210 223 225 255 244 212 205 245 251 211 251 216 195 236 236 207 234 249 242 198 225 231 205 213 220 215 250 233 230 229 232 247 196 201 248 247 218 197 237 215 216 234 236 216 216 217 230 255 212 216 197 242 252 210 202 218 230 196 197 
206 232 236 197 235 244 250 227 208 255 210 229 215 251 209 236 211 233 210 212 251 231 217 239 229 232 246 254 208 249 197 219 225 241 223 205 229 219 239 245 218 195 220 240 251 236 222 208 214 237 225 211 214 249 196 250 225 250 248 240 
245 253 205 217 238 233 229 213 199 212 204 224 212 229 209 209 212 236 222 231 220 254 249 239 250 250 234 219 246 228 206 236 227 216 197 209 255 231 230 198 248 241 229 206 215 243 222 232 226 251 209 251 251 204 234 245 198 214 211 252 
250 222 232 221 243 234 238 242 209 214 247 203 199 221 216 221 210 245 197 241 240 213 236 237 222 217 227 228 238 243 224 234 209 200 200 196 241 245 246 196 203 239 204 209 206 227 236 222 218 240 209 202 198 253 244 227 216 217 199 198 
204 230 238 220 235 245 224 222 236 216 223 246 201 234 199 213 205 240 242 228 225 197 237 228 255 228 199 215 250 206 221 201 241 203 228 223 255 198 250 237 219 218 227 228 196 231 246 209 216 234 244 246 236 226 220 238 200 226 197 196 
239 223 202 225 233 238 253 234 241 249 215 207 211 247 240 215 225 232 229 246 212 217 238 253 250 202 235 255 235 240 196 219 207 205 251 248 248 250 226 236 243 249 250 201 242 234 221 211 212 196 201 229 218 246 228 215 255 210 214 235 
196 217 200 210 228 195 202 222 250 236 202 237 229 196 243 215 237 208 232 195 211 240 231 235 231 204 255 230 221 215 211 222 238 216 237 212 216 245 239 210 227 249 255 200 252 242 222 236 197 200 236 213 248 212 255 225 223 195 201 249 
218 218 215 202 241 198 219 202 250 202 219 221 197 218 228 255 207 197 235 211 202 217 231 196 234 233 226 201 233 233 196 197 195 218 204 241 222 228 250 216 238 216 243 240 241 217 241 253 219 222 210 229 245 247 230 225 224 201 234 203 
239 237 206 241 200 217 228 227 251 225 250 235 246 237 221 231 199 207 231 225 236 246 198 225 239 234 197 209 240 238 220 225 219 233 212 224 255 245 197 250 214 253 229 206 234 195 243 240 209 220 212 250 212 215 222 196 254 226 212 240 
