P2
#imagem2.pgm
100 100
255
39 130 166 238 54 107 232 161 114 202 200 17 159 187 32 200 199 4 221 106 181 79 53 76 210 16 194 248 30 89 125 69 219 35 52 17 143 28 178 1 230 122 18 133 53 51 78 252 55 43 102 236 122 155 56 76 171 250 69 201 83 194 15 47 229 67 64 116 95 243 117 69 109 136 202 163 187 24 159 242 67 6 222 190 161 22 10 77 16 79 22 100 17 37 147 247 104 211 107 199 198 225 12 52 105 215 215 36 239 118 22 51 124 244 241 30 10 251 107 26 75 129 126 92 167 17 83 15 229 191 215 171 160 227 223 9 186 182 45 170 45 67 221 169 55 206 199 65 201 50 91 20 180 218 113 91 235 196 106 208 131 65 124 35 37 91 44 223 18 89 137 63 156 102 232 211 52 176 20 254 226 112 18 150 74 131 241 53 72 92 6 203 157 130 239 194 221 27 162 239 117 43 46 17 146 23 229 198 199 249 196 169 105 215 64 179 90 49 233 162 141 239 110 43 113 93 237 78 120 143 62 237 187 108 255 77 131 228 19 74 221 216 244 71 175 52 250 9 101 227 172 243 210 26 30 67 119 11 146 239 155 208 221 86 60 220 163 192 192 182 10 157 142 254 228 61 50 223 71 152 194 243 139 149 13 169 216 132 180 106 115 79 58 80 165 119 44 72 55 236 255 65 138 141 64 110 203 114 77 18 10 16 5 149 165 18 62 125 150 243 232 9 66 34 90 232 153 134 48 208 115 47 18 253 189 82 107 136 196 185 154 207 201 159 100 110 177 163 235 71 150 211 80 216 246 170 192 143 49 241 96 164 32 114 161 221 196 12 101 136 197 255 87 142 158 188 252 79 95 232 150 245 187 231 205 177 145 142 65 194 127 161 102 159 19 7 125 215 20 226 95 217 226 183 104 128 115 100 208 210 76 102 199 8 77 148 185 223 34 250 161 161 155 8 65 174 15 190 133 35 160 229 253 130 156 101 3 15 201 211 225 22 57 168 30 135 60 215 102 95 210 7 0 109 15 65 28 31 255 161 66 160 134 63 34 34 164 37 49 110 248 18 132 50 186 162 185 247 121 31 86 75 38 86 185 54 152 213 85 151 118 151 55 253 215 90 31 123 127 81 233 120 99 109 170 30 15 99 21 137 130 107 212 168 193 141 222 89 98 51 241 217 203 40 214 162 130 245 29 2 70 7 122 170 116 36 200 132 135 221 13 9 72 225 177 9 111 144 99 209 195 84 170 142 124 128 48 255 118 78 1 188 85 123 102 201 159 46 77 38 11 90 47 83 60 224 93 171 112 192 124 52 20 39 194 144 167 243 143 29 65 144 218 150 11 64 95 170 111 173 208 122 7 255 206 67 224 43 238 80 235 107 132 255 146 71 143 57 58 31 87 123 175 49 17 187 113 112 101 224 29 54 91 37 53 41 104 21 84 87 102 63 194 234 62 84 49 205 141 107 236 228 230 156 21 247 87 135 104 188 103 133 242 194 170 40 235 19 61 63 106 163 126 44 142 188 128 191 138 13 43 118 242 17 18 7 9 105 142 113 38 246 246 24 184 161 64 164 180 126 227 30 33 98 74 175 30 202 111 168 215 154 31 201 171 49 209 180 155 95 37 193 85 28 217 14 189 26 178 113 152 149 143 185 247 217 105 22 163 216 190 122 114 221 68 29 15 21 210 170 116 247 107 202 19 68 216 208 94 138 65 246 31 208 176 23 169 25 45 76 241 235 199 99 201 11 128 216 32 82 130 148 74 237 94 93 49 54 46 144 192 111 134 224 64 54 247 233 79 36 54 64 15 253 163 216 8 36 176 40 118 50 188 192 31 27 30 81 81 76 225 18 187 103 242 251 158 233 229 237 13 27 46 28 24 209 245 32 245 165 72 108 216 4 44 247 31 74 72 113 150 41 131 82 145 117 77 47 94 50 28 107 77 74 135 101 28 124 133 17 34 205 125 250 210 170 241 241 244 58 98 139 99 229 221 244 90 42 35 184 93 64 35 170 138 171 16 166 39 149 184 73 99 53 67 53 223 53 38 212 111 137 95 210 110 60 199 201 102 234 129 195 42 165 110 181 80 126 91 119 19 19 193 118 73 4 171 40 57 210 252 168 91 91 123 201 151 66 146 254 44 20 193 87 185 47 12 9 173 103 128 193 123 65 55 196 70 227 236 127 181 233 40 16 68 163 217 220 229 108 218 17 128 155 104 57 203 116 66 120 220 194 57 87 4 113 27 74 84 7 201 9 240 241 25 53 148 242 17 121 94 235 139 222 134 243 23 81 104 89 202 68 28 3 155 32 116 182 106 200 189 51 209 174 37 234 227 185 221 244 51 59 223 190 26 101 177 49 183 25 139 129 93 167 132 248 199 249 174 49 193 108 100 147 26 137 125 253 67 90 241 118 150 208 52 176 53 229 225 236 255 108 109 92 19 242 85 218 235 3 11 172 111 112 63 137 249 189 134 60 23 119 178 173 71 230 93 125 204 63 105 203 171 215 39 191 201 124 153 180 128 165 96 239 21 160 121 14 93 255 75 116 119 253 34 190 228 127 59 176 190 165 123 106 124 162 41 69 31 194 249 159 103 89 142 124 249 7 139 86 7 214 203 126 211 237 60 183 108 120 103 43 29 226 149 153 133 190 222 164 128 215 67 232 48 209 100 42 217 239 128 224 197 75 94 153 56 154 80 165 18 184 208 47 154 101 200 31 35 166 195 163 125 6 139 174 216 240 216 177 223 88 145 165 164 239 62 220 137 142 129 156 70 81 203 225 182 148 0 217 58 196 125 184 202 8 102 162 248 62 83 216 150 228 125 58 211 187 23 93 73 152 249 144 234 196 113 160 88 113 122 147 53 247 75 0 255 177 162 248 239 246 208 133 218 77 192 174 8 215 11 81 111 4 225 89 200 82 250 33 196 116 180 249 107 255 249 106 176 156 98 159 146 50 36 108 127 228 26 135 187 37 217 43 41 186 132 242 13 126 19 209 242 199 202 93 198 196 200 118 96 42 21 242 93 57 94 220 30 121 100 217 158 61 4 200 247 137 186 4 7 205 213 250 148 160 87 90 100 31 208 196 74 229 182 167 30 20 131 60 141 231 22 44 36 26 244 28 163 174 32 171 123 246 165 15 150 252 105 250 28 57 190 102 30 116 13 60 136 144 121 22 120 143 66 156 169 54 184 77 228 217 248 95 207 157 110 101 153 215 95 181 16 29 27 46 145 40 106 25 185 227 47 49 114 113 205 28 167 134 105 139 95 97 234 46 254 88 147 151 47 242 77 63 15 104 109 160 145 216 185 74 187 233 123 46 90 72 74 2 206 179 141 45 20 120 91 18 208 238 169 0 224 246 63 239 95 173 143 240 133 73 58 64 50 181 110 140 253 184 142 204 107 28 249 127 148 85 145 100 67 59 100 36 49 164 19 144 81 163 128 214 236 186 22 30 111 133 170 109 61 57 57 169 85 50 40 233 135 186 77 203 245 178 239 38 86 2 183 167 165 55 125 145 242 147 175 97 24 90 206 86 147 7 255 232 58 39 209 193 225 30 140 214 208 123 253 38 126 180 205 35 235 74 181 221 222 100 63 246 190 13 76 81 21 75 57 79 115 10 16 84 41 157 43 249 24 40 32 150 220 237 186 199 56 111 165 22 211 228 12 146 241 89 227 6 164 29 85 23 39 102 108 80 3 151 74 27 191 106 178 155 87 108 98 143 219 7 165 174 235 178 64 221 11 36 227 175 65 57 199 104 159 51 185 162 202 3 189 137 109 111 36 196 219 134 84 182 142 249 101 121 171 165 86 182 201 58 102 10 115 45 115 18 96 44 180 42 47 113 179 156 225 215 96 188 93 180 115 235 174 216 101 89 125 187 16 71 245 118 81 104 163 196 122 3 240 46 45 31 160 224 187 129 183 28 61 20 208 176 0 126 136 101 216 6 32 232 77 22 94 158 126 1 99 249 4 83 39 49 115 199 17 46 72 200 74 134 220 27 54 220 153 191 65 113 197 98 89 18 120 183 176 246 184 19 239 188 103 23 237 218 222 254 8 39 198 83 173 163 110 227 127 7 162 193 121 103 35 210 121 155 138 42 145 66 61 129 255 164 152 236 126 118 235 135 157 177 218 74 84 72 46 212 79 208 149 200 56 184 155 177 83 37 219 228 103 25 101 102 189 253 83 60 116 62 195 17 239 157 92 68 229 138 24 52 90 173 253 146 101 152 68 184 189 31 156 36 56 2 139 246 255 222 50 115 28 245 133 11 146 225 79 119 107 103 171 197 20 168 88 121 64 156 49 253 187 206 34 244 208 173 234 207 139 28 67 167 17 200 178 163 169 2 26 20 105 197 217 126 110 49 247 174 205 41 172 137 247 206 125 199 123 103 150 6 131 217 173 148 161 95 55 74 97 81 94 203 22 56 73 132 105 64 51 55 105 223 192 96 173 61 39 40 164 190 46 39 151 219 187 57 58 242 131 156 67 226 103 89 26 176 222 131 240 17 186 90 240 122 186 157 183 226 197 91 160 243 130 55 206 61 112 8 47 244 164 114 214 11 204 240 187 170 115 172 187 46 6 171 168 192 72 96 162 13 187 66 0 62 122 206 123 234 214 171 222 123 29 180 134 233 164 66 147 24 238 78 70 244 249 238 180 65 78 87 78 10 153 78 72 19 28 195 254 243 110 220 110 140 145 244 117 53 54 9 77 36 87 147 24 81 130 205 146 208 36 225 218 189 47 34 209 76 230 207 63 84 171 173 224 60 161 86 114 216 95 191 252 182 83 21 7 213 226 154 165 6 123 128 195 170 162 148 246 136 99 53 221 15 226 189 75 132 19 189 92 114 125 88 41 208 109 48 165 79 202 74 85 69 202 25 240 109 173 230 245 17 28 210 32 254 144 107 130 163 41 222 22 166 55 63 118 164 111 27 244 58 101 73 127 48 98 111 157 16 86 146 33 114 101 65 112 245 172 243 152 213 209 174 123 8 237 241 173 93 12 161 151 114 234 22 162 77 134 63 93 220 209 126 78 54 191 190 43 107 177 196 65 131 114 188 139 96 174 56 189 186 217 84 44 196 106 206 17 240 13 110 204 223 236 26 21 171 217 65 22 138 5 87 13 119 20 153 215 194 209 148 124 171 232 169 111 83 119 128 67 133 238 16 100 218 42 121 133 3 186 155 142 191 243 155 55 7 52 14 201 6 163 69 177 139 238 32 222 102 160 34 235 142 50 79 104 92 200 237 96 131 136 238 66 123 137 121 130 190 136 75 196 43 145 117 182 127 149 149 229 53 183 208 195 233 31 43 69 232 24 165 107 160 147 173 28 29 39 158 219 175 234 159 218 123 20 144 250 169 37 224 222 220 176 161 197 208 204 11 184 228 176 35 132 68 208 160 97 247 63 60 166 41 219 128 164 239 17 158 152 54 126 118 19 47 23 216 255 227 227 183 199 148 218 75 216 170 236 57 162 43 117 72 84 80 201 248 63 218 150 215 16 21 77 35 68 100 252 67 71 223 250 14 115 212 89 75 126 69 132 32 112 249 105 196 73 50 188 136 12 83 95 28 104 172 64 172 16 60 239 87 27 233 101 143 189 191 218 59 4 95 92 117 88 197 57 162 247 246 42 3 73 138 31 177 54 95 93 71 155 76 158 183 53 4 70 242 195 32 45 199 127 137 60 216 78 118 122 69 108 164 72 181 46 104 102 101 199 195 172 99 15 74 26 68 78 96 54 17 128 99 217 0 237 21 216 59 139 82 129 247 246 201 172 37 49 18 138 249 213 54 92 228 128 118 40 207 214 94 224 86 194 185 86 175 207 46 234 90 128 107 82 119 53 254 156 102 17 38 95 230 92 187 203 220 49 243 171 7 82 140 94 20 69 180 195 20 227 173 111 99 25 193 218 78 191 118 180 208 156 20 183 248 207 130 213 1 117 128 8 199 12 102 219 82 27 158 102 254 76 213 97 101 150 60 179 86 178 103 38 79 123 221 71 75 95 28 76 213 157 84 156 169 187 120 251 214 22 98 212 98 55 53 199 206 113 122 36 36 226 74 115 93 40 186 168 135 215 244 92 116 73 249 29 4 113 25 218 135 123 174 234 178 227 177 128 85 44 164 121 14 239 236 107 23 166 20 158 125 8 251 241 81 244 15 85 101 40 47 236 163 221 214 85 193 136 214 22 180 122 143 194 105 123 45 128 33 65 31 159 74 26 144 155 14 159 241 115 199 32 95 106 254 54 192 191 190 150 213 114 16 100 52 122 223 97 250 0 163 25 159 237 51 48 136 65 207 121 180 151 154 20 1 152 74 193 87 8 87 44 122 104 144 174 226 111 15 220 111 178 246 15 159 41 63 40 107 14 161 31 165 59 51 167 211 125 104 42 133 192 86 255 40 230 173 10 85 189 230 197 111 220 212 15 6 19 55 113 33 216 144 199 20 196 110 231 65 214 18 199 150 104 198 190 79 116 200 164 49 175 105 160 139 61 175 145 80 230 2 114 191 147 57 211 87 167 186 152 125 204 95 20 53 38 210 132 154 155 40 203 74 146 107 213 207 27 103 32 1 105 146 192 252 203 147 83 114 78 236 239 26 75 3 79 113 214 211 11 113 252 214 187 142 66 144 93 93 247 125 94 97 15 31 93 218 178 177 76 0 157 60 27 232 63 106 90 21 62 101 134 58 60 65 200 126 210 37 219 201 163 57 42 178 88 136 141 11 57 217 11 214 21 38 190 85 145 24 106 207 126 241 9 186 50 209 56 4 246 19 206 153 76 248 76 165 128 217 176 185 178 187 143 200 226 78 29 115 102 135 66 228 120 75 158 171 28 214 175 18 233 125 172 54 118 248 219 246 209 139 176 131 70 63 75 40 141 104 155 244 240 221 216 104 40 119 19 68 77 195 87 55 64 3 109 182 251 72 173 204 211 93 79 25 156 155 66 42 3 221 30 243 187 246 92 227 109 111 40 187 50 127 242 115 130 95 41 125 167 214 73 122 51 152 147 208 51 213 250 55 179 24 42 110 14 134 81 124 246 121 55 40 248 41 155 122 136 197 247 47 155 64 169 207 217 60 159 12 18 153 67 197 177 110 51 191 244 132 59 234 254 114 19 246 155 174 113 35 115 104 82 15 169 251 222 130 56 125 142 74 22 210 15 199 64 66 134 52 198 194 31 196 52 50 187 208 224 44 243 84 148 70 99 61 65 65 191 121 190 78 195 212 32 210 155 96 20 33 148 219 227 179 159 24 229 90 232 198 134 219 26 27 33 125 88 99 190 24 220 124 102 160 80 134 114 235 230 135 12 122 98 240 46 1 8 19 92 240 217 226 203 243 253 237 112 86 80 46 110 44 170 212 204 250 90 63 229 64 198 242 186 40 226 232 41 234 252 133 218 213 104 165 201 101 146 57 187 226 104 41 15 18 253 219 13 87 26 242 151 224 228 82 8 198 58 50 176 54 183 138 12 31 48 213 133 194 14 64 165 118 106 180 137 103 143 150 191 170 136 86 138 109 168 147 51 227 197 228 25 124 110 37 156 158 250 33 97 9 97 6 127 203 186 8 51 73 158 242 243 39 72 126 148 241 17 199 212 214 171 237 82 26 19 238 184 13 15 25 22 113 31 150 60 217 158 111 35 61 97 22 100 170 148 248 155 165 191 111 123 107 92 206 133 111 188 61 125 204 87 147 61 118 41 121 80 200 233 115 5 74 137 105 244 30 97 143 195 32 254 63 139 91 13 16 202 201 78 71 149 165 219 210 27 4 76 107 204 53 222 209 127 104 58 116 134 155 3 73 188 2 136 71 93 149 88 39 95 166 111 244 75 74 199 102 78 19 210 27 72 176 236 199 24 39 59 158 194 63 232 126 65 112 198 158 6 30 197 101 196 52 89 15 126 32 117 205 51 71 232 123 248 212 67 16 251 126 175 190 189 151 60 254 7 2 156 13 32 98 114 228 150 204 243 21 236 105 226 32 176 202 155 168 158 222 185 154 93 104 88 26 255 148 25 6 151 181 20 183 23 134 156 174 82 143 195 63 248 165 95 169 111 250 81 13 217 10 167 54 114 255 80 113 148 105 120 43 31 140 226 54 18 126 228 101 14 167 164 6 76 3 175 187 253 1 201 214 11 112 12 126 112 93 239 4 198 103 47 229 243 17 28 6 144 0 107 158 168 15 164 244 18 84 176 15 85 121 230 96 233 242 222 89 79 206 93 22 53 140 251 41 158 23 47 46 24 154 204 192 169 112 180 187 196 100 202 25 221 176 122 199 163 88 32 242 38 126 8 92 10 4 133 168 27 180 214 51 78 162 243 247 19 168 178 215 12 124 241 234 45 107 177 208 195 209 194 234 79 203 70 90 207 203 2 234 127 217 30 205 123 17 196 142 185 118 102 198 242 87 176 31 194 97 239 133 50 178 111 130 125 181 220 76 128 222 54 255 183 84 204 51 102 144 193 31 6 39 229 249 126 149 24 64 246 8 198 41 186 53 171 55 235 135 131 107 101 185 107 29 14 55 80 116 200 17 147 206 57 121 199 183 14 224 248 5 232 190 46 162 243 217 217 222 96 92 74 197 21 181 226 35 236 50 151 180 68 43 131 125 164 74 52 178 42 44 183 18 234 229 180 222 190 141 188 30 233 6 228 255 187 198 34 168 249 186 92 61 229 223 186 137 42 238 59 84 27 243 103 5 216 27 227 151 169 160 181 146 166 153 145 98 96 180 10 89 110 102 150 83 70 80 220 112 62 23 196 89 10 43 95 227 71 66 122 240 226 47 130 137 201 20 235 41 200 245 130 54 91 24 137 161 104 101 17 166 124 214 0 135 1 95 106 72 161 228 56 132 19 187 13 220 207 248 5 151 237 135 205 72 159 86 234 7 187 251 174 55 209 174 190 211 13 40 27 174 12 84 50 32 15 63 252 222 55 2 117 36 137 66 109 41 152 87 48 83 82 222 138 36 140 73 247 153 113 18 72 126 102 122 158 117 186 154 83 241 156 200 22 38 10 131 79 162 218 127 245 44 94 128 80 234 201 71 132 58 90 204 184 192 70 86 54 0 241 137 242 141 82 8 179 92 139 2 255 101 130 244 145 224 116 226 202 61 41 78 120 131 26 48 68 97 135 122 97 120 3 83 5 85 91 185 178 230 187 177 75 61 165 221 29 26 191 232 87 232 54 207 108 81 0 176 178 135 42 19 255 45 103 4 131 194 189 53 169 121 230 244 182 139 209 212 165 144 188 253 121 242 204 229 67 204 149 245 83 191 9 82 236 112 87 111 50 20 164 219 141 138 208 68 22 161 24 187 50 212 184 171 198 133 144 10 81 37 255 165 228 8 247 208 120 78 64 171 99 228 134 240 111 86 52 133 248 76 64 42 32 249 213 231 126 101 241 207 138 240 116 110 249 108 62 113 186 126 28 29 99 163 14 210 249 66 87 241 143 151 27 175 144 240 150 14 85 135 222 223 120 82 77 113 190 140 226 121 10 255 150 109 162 164 63 155 231 150 141 118 46 168 37 190 153 188 205 238 67 171 206 187 253 27 44 188 167 15 53 178 14 203 31 176 112 95 75 87 245 216 205 35 129 242 226 26 174 175 8 242 90 214 173 87 242 218 19 153 233 72 75 247 20 107 167 132 202 242 219 191 203 168 227 76 154 197 102 73 116 110 59 206 69 232 37 55 194 57 208 171 129 28 162 149 135 73 25 81 60 244 16 7 156 243 83 55 184 185 128 44 39 187 250 108 163 32 163 102 89 116 17 218 144 180 112 23 253 137 104 57 126 120 64 26 108 147 81 36 76 209 81 116 140 75 224 48 107 132 150 196 248 167 159 136 91 15 159 89 152 7 146 22 127 211 49 235 102 130 16 179 84 97 39 224 172 7 16 24 139 166 220 131 78 123 11 169 138 170 2 35 177 149 57 49 104 106 28 206 237 44 129 65 141 168 33 58 176 50 82 59 216 46 191 38 170 202 208 52 117 210 87 38 103 145 87 207 251 116 158 232 160 31 41 46 200 75 104 120 125 186 179 85 232 114 124 146 61 76 199 178 30 30 216 134 175 48 85 171 164 243 147 68 19 189 114 219 8 218 83 133 148 6 218 125 121 86 15 182 162 214 104 193 245 64 71 164 112 156 79 20 144 227 89 163 160 203 126 168 166 209 45 58 215 7 183 80 94 199 6 0 157 110 193 146 175 8 55 31 165 134 52 53 105 141 216 9 88 86 177 254 39 222 57 254 230 240 79 68 183 85 68 85 196 6 231 115 14 30 146 179 165 198 232 14 83 192 24 172 22 201 170 61 168 227 60 142 212 139 210 139 224 22 224 164 28 200 23 43 230 170 222 139 112 199 154 196 135 178 112 158 123 26 219 35 254 23 177 210 162 131 93 131 154 62 39 182 6 63 225 236 233 192 120 89 135 18 29 14 196 141 172 63 168 136 99 166 159 20 120 66 152 213 197 50 19 236 232 25 43 202 6 20 138 126 110 17 144 139 31 84 25 204 147 193 84 246 103 243 11 223 53 163 180 250 213 200 231 189 225 18 135 231 39 17 101 149 34 245 32 66 73 57 14 221 250 98 211 97 85 222 64 139 129 245 133 86 189 108 20 158 127 155 134 166 173 235 59 207 225 91 17 42 149 31 7 143 129 219 241 215 185 49 98 59 38 231 145 227 84 165 130 211 65 8 121 238 243 180 189 212 15 207 255 164 238 6 52 112 225 37 71 155 86 169 214 125 144 103 96 228 13 226 183 78 234 48 60 222 228 249 178 244 200 177 152 183 184 204 39 153 241 110 52 72 23 10 197 167 114 37 140 127 8 67 205 242 116 9 208 88 2 131 76 203 52 229 130 236 177 169 134 163 23 186 235 46 197 176 213 55 213 97 182 221 165 131 208 25 140 160 113 142 35 190 89 88 163 219 68 84 132 202 247 155 133 226 201 74 146 159 129 104 0 55 69 165 186 21 190 70 182 48 212 217 238 46 49 145 9 118 229 142 64 221 41 197 191 243 15 82 146 144 186 146 199 255 56 129 21 246 199 203 38 156 164 20 202 214 165 211 76 139 97 140 104 139 82 39 126 97 121 16 242 51 162 185 51 218 59 72 209 2 19 247 158 183 12 104 141 177 60 217 60 157 102 164 40 184 204 166 25 69 182 11 121 89 197 172 51 0 244 4 2 7 252 161 190 8 9 76 185 69 37 246 227 139 154 11 67 102 178 93 172 104 104 37 193 45 209 245 45 197 249 48 204 245 209 138 253 218 214 183 32 252 173 3 135 71 14 203 174 192 40 90 41 144 127 234 190 80 223 235 21 217 27 225 206 236 107 204 199 66 131 231 62 48 234 197 119 248 144 37 185 184 127 226 73 254 204 7 78 172 242 99 133 14 68 83 250 176 31 193 242 162 168 48 210 146 245 74 139 134 111 68 62 239 38 135 237 242 142 60 158 129 159 35 143 228 119 137 148 150 75 134 57 243 182 11 134 171 85 17 49 197 85 112 180 123 247 161 109 134 221 12 7 125 47 150 97 166 31 245 61 106 123 118 94 49 129 228 220 215 245 14 156 74 126 80 197 117 241 50 251 207 62 2 76 110 152 173 20 184 162 81 34 29 199 128 78 73 100 42 32 89 56 188 163 182 12 104 44 253 155 39 204 217 42 24 71 194 197 92 122 103 173 157 132 117 29 210 190 130 253 222 219 53 154 127 236 166 231 24 163 130 63 112 92 105 136 163 44 78 255 166 181 173 67 58 34 97 12 224 227 9 190 190 63 88 61 43 254 37 67 161 167 130 17 3 236 154 167 24 232 166 190 157 83 2 215 117 99 228 85 70 237 19 4 44 107 66 87 105 103 154 11 14 29 28 18 9 182 185 33 158 95 223 60 179 225 19 40 68 247 126 138 229 145 143 17 253 209 105 102 56 3 113 70 32 142 88 41 68 17 74 227 113 42 31 36 11 50 76 80 42 202 218 15 92 105 32 89 58 137 191 114 141 49 185 173 191 17 215 3 35 33 230 148 75 5 184 87 56 4 167 98 207 129 113 43 235 145 132 37 27 67 152 168 116 81 85 51 98 44 55 133 78 29 25 153 35 209 240 91 214 151 189 165 25 46 208 4 191 84 41 218 151 193 130 12 18 216 63 117 4 118 250 82 148 20 236 183 229 220 18 187 116 207 96 141 253 48 145 188 132 186 151 28 124 25 40 142 241 103 3 246 222 254 72 114 18 52 41 247 17 59 179 133 10 19 18 7 68 163 195 200 93 90 228 217 116 12 104 101 116 107 91 82 105 164 196 123 216 237 115 233 40 38 110 50 57 128 57 125 35 252 70 129 87 42 90 203 55 194 48 171 46 140 253 151 48 193 19 8 174 134 242 214 172 96 8 229 225 65 99 4 61 169 133 148 211 224 95 10 162 144 181 208 28 178 104 76 115 123 84 33 1 70 247 173 167 255 146 136 64 245 140 126 158 18 18 114 242 114 124 148 2 50 101 30 228 205 106 88 72 190 121 73 5 113 246 172 112 136 52 177 126 192 47 28 210 65 142 196 179 11 89 181 61 190 211 33 139 61 121 211 252 243 28 1 100 18 173 212 154 225 133 24 161 180 53 116 246 195 56 169 206 145 95 11 79 50 45 218 112 166 173 108 153 201 109 253 219 26 210 118 251 87 142 156 12 195 16 2 135 73 171 85 218 10 97 42 61 142 4 173 52 178 25 206 123 134 203 87 160 157 205 155 245 91 55 1 31 72 3 166 145 174 251 107 185 92 149 246 234 154 163 31 76 188 237 199 66 184 30 226 86 235 125 75 71 180 76 102 252 79 12 141 253 7 249 182 100 142 172 78 40 79 109 116 11 90 60 77 19 90 47 105 70 172 180 141 97 0 243 93 79 255 235 76 6 228 3 106 114 175 185 155 255 38 15 10 129 75 88 148 166 135 253 236 52 177 121 149 177 108 242 0 107 221 76 113 193 79 220 52 255 149 207 254 187 222 8 60 42 96 208 208 232 205 188 28 126 53 177 47 161 163 47 12 129 124 125 66 203 89 118 202 238 69 200 170 36 209 230 78 49 183 30 25 132 218 53 3 15 230 50 176 138 98 188 11 222 57 77 169 147 196 116 129 9 60 43 45 13 18 123 63 201 153 88 77 115 142 80 130 116 131 50 254 229 238 9 195 40 87 108 187 27 224 60 36 29 104 82 42 122 205 105 67 103 194 144 218 80 225 93 196 100 143 195 73 126 204 12 166 35 120 97 62 89 157 99 118 5 181 160 127 130 10 194 233 204 83 196 28 52 33 224 152 176 163 225 46 112 237 212 147 101 53 210 190 211 53 52 216 234 213 88 108 223 26 86 171 109 26 199 161 59 167 57 235 75 26 26 187 7 238 78 109 36 32 43 247 85 96 207 63 53 39 172 20 66 2 191 175 28 134 81 87 45 138 66 120 165 92 51 172 75 130 25 111 162 69 102 248 165 53 55 218 93 227 238 159 229 173 78 1 51 159 88 96 42 155 217 207 247 12 123 66 142 149 177 49 218 23 41 127 77 96 89 170 68 71 73 41 244 151 43 39 55 131 135 97 30 96 48 22 109 171 88 251 64 10 44 26 33 85 153 110 182 242 24 250 57 97 35 45 249 78 84 48 210 220 145 240 60 193 6 169 108 95 165 173 105 209 199 138 39 97 249 221 83 17 215 141 115 250 186 108 73 15 156 27 235 45 11 39 238 18 209 90 113 118 7 218 71 207 100 110 48 93 75 131 111 34 16 226 29 203 78 102 218 234 129 197 23 140 236 5 158 189 95 15 51 103 233 123 54 78 233 102 171 53 233 26 87 250 252 116 197 74 218 159 52 91 100 75 232 80 80 134 14 176 150 65 23 127 188 77 205 166 179 121 219 156 147 50 150 144 167 91 218 129 250 15 221 94 90 197 175 171 75 189 91 225 254 114 97 187 191 46 97 114 167 60 14 59 110 165 203 21 0 165 151 251 180 116 89 15 57 8 186 132 197 21 102 196 135 199 127 70 245 224 184 157 28 198 216 138 107 163 160 108 72 55 103 253 171 192 12 228 201 198 104 142 219 206 82 98 149 209 168 139 177 96 40 205 38 0 88 146 163 248 254 235 47 101 232 218 37 244 190 238 186 38 125 149 245 207 247 138 161 159 21 82 255 61 32 38 61 120 184 224 112 182 204 159 27 180 121 64 169 55 47 99 93 172 249 82 123 240 221 28 144 242 111 143 48 143 181 109 7 109 78 119 35 26 22 62 206 143 127 119 198 174 219 35 90 212 118 213 196 83 242 84 69 97 228 117 240 153 227 247 7 49 110 42 75 132 105 25 19 232 145 217 150 108 252 240 64 114 197 4 197 183 89 11 24 61 128 8 214 99 255 221 148 109 8 223 241 113 249 4 89 138 221 239 246 218 223 54 76 164 58 18 92 147 29 116 208 157 125 167 1 124 132 149 234 140 117 219 253 110 224 86 248 189 69 238 151 36 36 228 201 94 246 37 242 19 153 194 176 22 105 177 147 238 71 125 122 188 88 120 42 56 206 34 246 20 16 141 56 52 113 1 146 103 38 132 122 192 71 43 214 176 220 105 158 35 230 25 223 63 145 9 119 95 43 109 115 59 251 172 111 108 173 2 212 212 134 78 148 205 121 106 126 86 212 28 121 186 53 89 249 198 98 113 38 142 222 153 201 217 69 57 70 243 59 26 199 193 104 91 143 226 197 13 56 153 41 177 84 95 10 77 37 109 190 75 251 157 229 196 118 42 253 188 29 56 214 228 250 63 63 137 33 5 150 89 158 191 10 242 30 21 64 68 130 254 143 125 155 116 65 18 159 63 206 188 119 165 161 113 228 224 250 5 229 144 94 132 80 104 118 110 125 182 178 255 181 66 124 80 182 190 98 85 253 49 18 116 214 179 230 186 147 224 191 121 113 29 253 193 133 115 47 3 42 226 2 223 36 127 47 218 61 146 48 58 195 66 174 153 245 148 83 136 117 18 1 230 47 254 167 180 114 214 183 156 184 186 123 220 57 170 183 118 60 231 176 255 41 94 152 30 243 235 166 104 253 168 78 44 166 245 225 24 203 152 180 132 82 47 96 139 218 23 1 22 254 177 22 39 16 174 69 3 154 236 107 151 148 185 196 58 174 165 83 121 61 7 253 144 55 94 27 17 117 29 39 116 206 61 155 222 236 225 225 134 205 76 29 97 5 225 155 179 134 238 45 196 246 42 84 45 136 111 62 254 140 101 114 91 163 13 57 143 238 27 21 187 103 50 28 109 20 184 32 154 166 77 94 156 120 178 201 0 34 7 254 174 109 112 9 16 126 67 159 108 94 180 40 197 230 68 50 250 252 83 149 163 160 243 63 24 166 9 25 200 16 23 118 125 136 128 141 6 195 44 114 33 224 154 230 199 223 25 193 219 108 86 126 12 74 190 37 240 199 62 184 215 85 46 85 221 174 226 227 113 15 86 146 239 240 121 182 207 146 120 171 254 206 41 10 24 231 47 8 174 109 192 134 195 239 219 160 157 189 132 15 204 218 161 188 202 26 114 154 172 234 69 170 185 110 181 209 86 228 218 4 82 154 138 21 137 101 181 39 35 57 54 239 19 215 171 222 242 30 120 158 8 189 73 193 43 254 147 129 226 109 134 52 7 16 73 145 118 255 184 153 56 238 136 76 197 52 42 183 82 162 86 90 95 159 28 138 157 175 12 127 28 146 180 35 162 253 180 24 252 108 177 53 90 58 129 32 110 171 215 192 77 45 26 172 204 54 54 105 229 66 233 1 212 157 37 119 154 217 143 151 70 65 204 160 123 77 192 233 248 152 169 69 197 195 241 146 250 39 251 223 106 228 225 62 129 6 181 28 223 69 179 37 134 127 198 1 204 134 234 196 30 147 9 228 86 250 118 80 33 113 48 139 86 17 202 215 23 127 243 246 196 166 28 74 37 226 75 241 104 53 181 135 200 190 107 31 184 225 111 218 82 159 101 168 176 47 128 199 175 115 190 115 26 218 190 63 188 9 49 36 63 230 171 7 165 22 38 93 247 150 55 74 53 157 242 230 204 114 173 123 230 107 239 0 69 173 63 1 182 112 38 245 87 209 253 252 232 35 89 223 185 145 41 239 46 28 213 250 142 130 118 116 238 101 116 51 18 180 53 200 36 91 190 123 44 187 119 20 222 209 244 152 98 29 135 144 57 92 138 200 222 0 60 204 101 177 0 119 101 53 64 137 144 254 5 188 185 124 209 151 77 197 47 175 226 182 63 28 18 202 228 241 202 32 189 48 209 189 167 54 242 231 192 130 229 197 63 158 65 16 54 143 213 101 62 183 28 126 211 46 72 183 31 18 216 221 66 169 154 234 224 141 209 160 15 183 101 78 85 166 94 139 53 51 241 116 235 13 242 190 59 58 118 91 76 78 56 143 247 210 121 215 95 74 119 111 1 220 189 87 131 28 226 184 79 211 44 58 224 30 249 28 88 111 119 165 189 175 52 180 129 173 140 225 247 3 80 249 224 13 80 99 41 50 27 121 6 72 179 230 102 172 2 191 27 121 100 216 40 152 141 170 69 25 139 60 28 219 53 252 232 133 95 18 184 123 139 190 195 62 164 41 235 167 232 6 32 76 223 73 228 108 243 41 133 126 102 161 89 155 158 65 33 253 83 217 120 222 151 59 29 59 101 8 226 77 14 3 154 237 76 126 89 63 168 222 189 14 128 22 169 30 87 202 27 171 163 148 137 58 207 166 118 52 174 88 130 189 91 28 170 167 154 4 230 66 226 163 80 98 185 250 128 17 196 156 188 104 48 69 162 255 236 24 52 154 113 182 87 204 210 2 116 108 6 90 175 232 254 255 75 183 249 203 200 190 103 132 38 151 202 200 151 182 225 203 80 82 129 168 30 83 170 146 191 176 237 110 152 235 110 227 162 103 175 107 37 22 239 75 174 185 20 69 111 245 16 192 71 145 104 101 228 18 248 163 194 229 18 90 208 128 62 114 231 237 221 13 3 205 88 177 134 108 246 246 97 6 182 168 151 30 14 123 48 6 31 242 235 49 76 187 177 138 45 152 119 11 165 123 216 254 44 94 106 35 84 204 41 10 116 193 40 130 60 88 136 91 74 115 140 151 46 61 33 92 214 153 103 123 20 63 121 64 157 228 99 242 176 141 252 36 78 37 167 138 125 47 230 200 163 114 95 209 176 128 45 134 25 148 1 45 211 123 110 113 95 209 99 15 94 95 51 172 132 218 55 2 10 29 202 173 143 41 126 63 169 172 197 195 64 199 240 20 66 94 133 161 48 232 176 142 71 227 59 204 190 114 206 200 143 152 117 30 193 243 94 106 159 35 45 224 234 30 244 44 124 121 205 172 97 125 59 168 97 118 116 31 232 66 231 119 218 92 149 155 79 243 6 239 23 51 207 1 81 195 46 206 60 251 122 157 121 181 69 218 43 186 249 19 252 224 138 215 60 32 114 139 19 120 122 42 172 73 44 253 12 90 203 72 85 70 229 206 251 43 168 39 229 161 58 225 129 197 184 189 229 43 73 248 163 195 35 79 13 79 77 25 169 24 98 254 94 71 205 90 114 117 129 87 23 187 57 152 128 241 86 101 28 159 94 192 98 129 15 111 208 92 137 121 117 235 119 211 50 68 45 165 186 174 252 209 106 53 105 234 39 191 80 67 94 174 3 193 47 19 48 255 111 185 120 228 164 239 184 215 52 229 124 238 148 120 191 254 174 40 232 213 232 56 24 70 230 28 7 21 47 56 20 158 241 140 131 150 124 59 109 176 32 233 158 180 97 93 178 15 133 155 228 109 211 253 180 186 25 187 207 72 243 228 230 229 112 105 123 236 164 232 156 197 209 58 121 50 151 44 66 29 199 38 138 154 35 62 84 60 250 36 132 237 8 107 210 120 212 77 101 121 53 1 62 6 60 183 57 211 227 123 240 170 161 123 69 197 185 153 1 179 189 134 161 197 241 115 62 197 193 163 62 246 164 124 253 224 52 54 180 23 177 164 194 82 31 7 23 217 160 25 140 94 159 45 35 144 161 97 85 98 4 148 88 169 16 85 137 68 139 61 92 60 226 30 143 1 37 166 218 197 191 103 35 94 148 71 238 53 168 68 151 173 216 240 86 232 69 223 45 209 29 137 13 255 167 156 0 204 67 219 145 2 66 181 97 214 252 79 12 164 147 163 81 107 147 167 84 217 135 129 170 164 10 183 163 177 84 163 125 151 126 14 153 192 195 250 151 191 74 163 100 221 70 181 73 218 93 157 179 228 30 93 136 40 20 43 217 104 206 86 255 77 100 153 13 40 147 164 231 221 71 75 187 142 1 4 104 94 161 27 66 191 120 202 231 140 245 192 245 195 22 244 16 122 141 30 162 33 194 138 254 10 213 185 152 214 189 0 52 94 27 118 29 147 64 4 31 53 196 20 249 218 9 9 85 150 39 247 183 234 129 182 244 87 111 140 45 45 140 98 139 167 216 169 58 25 173 89 78 114 110 71 76 119 81 161 13 120 153 197 98 26 123 86 113 234 226 159 23 110 1 163 21 217 76 79 242 249 169 65 107 23 136 184 142 217 89 155 82 242 96 180 13 219 11 126 198 237 29 221 92 30 128 113 248 204 193 234 198 106 43 49 129 180 233 15 141 67 170 223 53 11 148 66 230 159 193 172 140 222 138 232 253 10 90 245 215 27 223 157 133 11 206 6 191 184 21 76 251 191 44 48 202 192 115 177 95 52 93 235 18 231 212 15 242 46 4 201 73 228 102 206 239 52 212 174 236 233 250 231 168 38 24 115 230 139 36 69 191 129 49 209 105 5 225 91 51 229 36 124 201 138 74 184 190 30 102 171 7 97 146 175 135 170 34 110 53 70 179 244 200 228 198 49 233 167 140 28 140 176 152 86 58 226 14 248 0 117 163 7 214 54 183 93 224 217 203 22 32 127 10 232 99 208 25 77 119 165 105 4 85 2 90 143 228 104 135 229 221 43 236 179 97 163 17 65 125 220 87 157 91 98 133 191 50 158 12 170 67 117 174 152 119 8 39 92 112 174 65 78 217 45 1 58 209 18 124 78 239 211 235 74 53 112 9 104 14 21 18 81 139 192 233 2 200 16 94 56 190 159 134 152 205 136 210 158 154 78 236 137 34 215 212 87 71 221 191 85 243 209 166 126 145 143 128 89 159 223 146 93 126 24 245 75 160 200 233 59 22 213 196 56 172 152 144 243 118 79 72 105 33 238 231 178 125 103 12 28 70 158 122 197 182 111 16 87 55 250 146 78 207 86 134 124 239 22 111 101 102 184 206 135 166 181 57 36 28 69 64 99 227 186 40 154 42 56 241 97 50 131 175 2 217 54 126 200 76 237 45 178 165 251 57 76 176 115 112 205 184 176 48 156 107 88 54 149 144 39 246 195 170 166 197 131 220 67 76 40 48 121 219 214 117 20 34 37 135 146 242 64 66 34 220 173 122 18 66 11 57 57 206 227 223 147 102 187 214 178 227 6 44 190 220 161 211 254 198 90 144 185 154 211 219 118 128 86 136 195 97 193 252 47 164 219 194 11 150 152 189 121 158 233 56 123 138 11 121 81 101 10 10 0 221 229 118 93 59 255 32 156 192 28 203 101 247 141 112 141 37 45 7 196 23 63 63 161 74 184 242 175 194 252 175 159 226 38 253 29 37 29 186 229 58 133 74 49 19 186 191 56 232 198 252 255 5 59 160 79 244 147 254 182 143 174 86 113 212 83 143 249 112 73 222 170 206 41 220 225 227 155 26 203 97 22 202 102 82 107 181 70 254 179 252 141 97 82 255 53 165 142 46 22 215 13 192 165 54 156 135 25 55 161 229 152 183 175 254 9 26 179 79 24 103 76 166 200 158 165 254 68 51 44 90 10 57 26 175 111 183 54 137 238 215 110 135 143 29 133 152 56 57 232 80 160 52 246 104 210 155 102 22 206 147 112 216 204 139 136 60 66 190 197 48 150 51 183 37 80 61 189 136 118 165 217 22 217 207 126 172 107 229 194 57 120 51 18 68 190 154 128 0 88 69 48 238 120 232 19 201 37 209 81 155 118 42 177 80 250 47 252 101 20 190 158 140 241 176 209 175 74 81 175 163 151 224 145 15 200 165 216 237 118 42 136 236 84 57 60 78 104 56 179 125 247 82 9 232 2 218 152 77 44 71 240 195 39 129 210 239 38 171 220 156 213 100 137 41 157 197 120 6 254 43 131 245 125 140 221 128 103 117 205 147 189 189 86 228 62 40 212 101 211 176 1 168 21 138 210 178 80 74 184 78 117 59 67 243 200 32 115 47 150 64 194 83 253 24 55 59 64 11 160 20 188 162 188 209 44 142 131 124 216 60 202 78 119 13 65 63 46 180 110 196 244 48 23 241 72 78 44 137 90 205 157 22 111 89 231 155 232 106 24 192 166 226 14 30 240 79 93 30 3 204 226 247 252 249 232 69 71 21 206 161 226 107 183 81 196 158 236 172 9 4 109 175 231 123 205 215 203 43 245 206 247 215 198 243 208 174 56 23 195 6 185 165 113 112 246 54 15 227 226 24 231 79 199 206 203 149 165 150 192 154 100 183 113 42 170 65 217 227 89 156 233 18 66 91 130 56 145 145 27 115 169 3 195 113 209 142 6 119 36 198 17 136 125 131 179 39 196 140 10 29 40 244 47 106 79 178 163 224 67 190 83 237 193 22 94 147 164 100 10 200 42 27 81 167 158 4 206 99 144 217 128 184 205 176 35 28 98 198 252 165 132 79 146 70 102 240 217 10 84 227 211 126 254 36 37 157 40 244 0 184 205 128 112 154 48 147 182 146 89 178 56 222 1 202 36 103 187 253 114 15 224 69 142 222 105 179 123 145 167 123 73 116 252 185 14 44 77 196 191 166 118 247 132 120 193 168 223 124 165 81 140 133 150 26 100 255 205 223 144 117 91 217 233 87 147 248 131 224 188 66 134 51 57 11 171 251 179 138 119 89 220 3 222 114 29 66 114 235 34 2 96 125 220 73 212 111 65 87 79 254 154 213 49 211 224 220 206 148 102 70 237 66 73 203 181 103 14 39 82 48 41 178 173 5 251 129 116 61 216 195 59 114 153 108 70 121 72 20 13 174 90 250 241 164 198 166 11 212 205 93 4 246 15 177 252 10 50 112 71 10 52 130 125 205 238 195 70 54 215 84 229 50 78 214 214 20 124 225 232 73 62 236 63 77 157 59 87 207 172 159 218 224 33 87 173 16 26 243 70 241 71 43 35 150 1 249 170 125 218 147 198 24 127 6 101 29 65 189 236 237 92 198 205 125 29 122 141 55 110 212 41 181 255 76 75 1 70 246 126 32 137 69 57 8 75 158 37 140 91 18 122 183 216 71 53 246 194 194 45 48 150 86 229 150 163 49 151 233 39 21 9 176 90 66 184 165 225 222 50 60 240 172 244 200 243 41 190 181 235 236 229 130 66 203 24 229 252 175 206 35 196 216 211 31 26 139 196 251 105 246 56 89 162 44 34 150 85 224 75 64 204 49 194 15 252 218 244 248 137 195 27 78 155 238 109 181 121 49 177 227 40 233 60 202 21 94 96 106 63 172 170 11 221 109 26 217 71 15 209 209 210 236 31 109 218 140 34 83 189 211 54 229 188 115 176 209 209 16 59 16 188 230 28 153 83 54 114 154 69 67 107 23 47 138 132 9 22 167 93 212 122 147 185 55 6 105 8 216 122 68 232 54 42 4 208 125 59 66 23 128 134 131 152 181 13 28 191 36 195 28 248 62 175 177 117 182 27 125 142 149 193 118 203 235 123 155 104 182 222 128 54 100 3 206 25 16 235 216 52 174 244 44 236 164 222 97 90 249 223 232 142 160 94 89 140 217 245 244 143 211 116 198 55 119 148 80 136 127 41 188 46 29 233 26 193 199 124 27 192 91 3 78 251 98 167 135 59 156 124 203 111 240 145 166 104 37 247 240 165 32 172 211 61 149 237 255 92 105 26 28 196 30 106 192 128 18 71 187 174 195 134 30 180 23 196 28 61 187 12 226 219 184 181 25 78 162 24 170 12 50 199 208 80 49 144 208 67 216 140 242 155 18 16 79 42 212 107 103 144 119 73 107 48 254 132 126 160 156 40 172 207 239 125 31 33 13 240 100 229 124 86 129 142 102 208 184 59 60 31 203 179 104 54 227 102 187 97 7 87 138 179 38 121 48 70 154 62 54 255 35 178 85 164 64 188 117 249 247 177 24 194 100 129 248 72 231 179 169 238 11 51 162 49 173 210 119 71 16 173 70 52 95 156 216 160 88 77 153 79 254 177 17 99 50 9 171 26 189 84 8 200 136 170 249 53 125 113 124 141 30 195 193 126 95 154 30 183 231 183 6 230 104 23 73 155 32 244 181 221 