P1
#imagem.pbm
100 100
1101101011110101100010011001101011111011000010000011011001111111010011111100101000101001000110011010100010110010000111111100111011111111100101101100011100101100011101011000110110111110100010010010110000010101100111100101101100011001001011111000110100111011011111111001110110111001010111110011101001110100101001101000110011101001100011011111011111000001101000100101000110011010110011101101111101011100110011000001101011000110111000111110010001111000100111100111100010011011101001011000111000110111110101011101000110001100111111000010100010100111110000010001101101011010000010001010011010100101000100100000000101111110111101001111101101100000111001110010110001111010100100000100010011000001110111110100000001000010110001110100111111110010110101111011100101110001010011001001010110000000111001101000101001100010010000110010010110100010101000000010101101100111111110111011110111101011100111000010011110101110001110001000001000011101111001101010001101001110111111001111000001001100000011001110010111111111000010000001001111110111101010010010010000100011100011101010110111111111101100000101010001010001000111011101111101001001110110010000101011000110101001100110101000000100000100110010000010000000000011001111100111111010001001000101011100111100111010110010100111110000111011000100111011011100011001011110010000010011100011010110011100101101011010100001100111010110000101100001011111001100001110111011101101000110000110110000101000110000101110110001011111101001110110000101110010101011001100111111011001011010110011111110101010111101001100011001010101111101110100010101000110010100000010101110001011110011010000110111100011011101110111001001010101011001000100010101001100101110101001100000001011001111101101111011010010010100000111010100011110111110110100100111110110111011000010001010010000011000110011101000000111110001000101010000110010010011101001101101001101110110111110101001110010110000111000011110000101010011001011001101101000000110011000000111010110101011011000001111110101100101110011110011011000111101010100001000101000111011100000000010000101101001010111000010010010110100010110111101101100101110101111000011100000110100111100100111011101011111110000011100100111111001110101010110100110110101011101010000010001111101110000110000011010111101010001110111110110111101110000101101011100001011010000111111000110100010010010111111000101101110100101010011001110011011101010101101100101111001010111011110001101011101010011100111100010110000111000101001111110000100111110001101101100011100100011000100100011111101100010100100000100110100011101011000010101111101011001010101010110101010101011010100001000101000010011001111010000001001001101101000101110011011101001101011000100101010010111001101111000001011001110011011111110001001001100111000101000100111111011000110001110100001101110001101001000101010000100010101101010100000110001001010011100010000010000110110110010011000011011011011100101110111100101100001010111000010101100010000110101000011010011000110111010011101011010111110110101100000001011110110111101110001111001001101000110101011111011101001101010100011001101000101111010100000000001101111011011100001011110100100000111010011101001110100110100100111010011011110101111100110000011010000001110100000110110110110011101101011011011011100101110100110000001100000011101111001001010010010000010011101110011111000001011011010101011000011101011011000101011101000001010000111011111001110000101001110111100101011111010110111011000011101111111000111001010101101100100010001100101101000000110001011000001011001111010010101101001111011110010000101111101010000111011100110110101100010101101011110001110101101011011001001100011101010000110001000111011101110000101101111011111000101010101101011101100001111011100001010110010100010010000111000000010001010000110111010001111111010011100100111111110111000101001100010001010011100111010000000110111011100101111100111111110101101000110100111010101010000010100000111100011100110011111110110010001000001111010010001111010011110010010011110010010110011010001011010011110010011000011111111110010011010011010011000011111000100101000111010110000001110010100111001110010101101101000100110000110001100111001010100010000000011001110001100001001000101101111111010010000001111111101011010100001010010010101011111011010000000101100111000111000010111110100111111100101100000101110000010111000111001111100110100100110101101110011000110111001010011001111010110010010101001000011110011110100101010001101000001010011101001010111011101000010110011100000001001100011111100011010111111110110000001100110110111110000001011011010110101011000101000000101000001010010110010100001001000100101100101000001010100001111101000110101101101111101101010111111100110001101110000110000111000110111110010001001110110100000010001000001001111000010110111100101001101000011111000011001111011110000111110000100001111000101111111110001110100101000100101110000111001110101011111100110001101100000111011110001011001011100010010101000011001000101000010011010000111010110110110010011010110110011110100011010110101101100110011100000000101010010101011110110000000000001100001011101010101101100000010100000110100011001111001001110101001000011010110001101010001011110100101010001011101110110010111101110001001110001010001100101011011011101010101000001111101111010111001001011111011101001010111110010011100010111000110111100111111010100100111100111100000011000100110011000110100010010001100010000001101001011001100110100101100110001001110010101000010101011010111011100110000100111101001010001101111100101011000000101000010000111011100001110010000111110110100011001000111110100011111100101100000000001111111110101010000100101101101111000101111110110110101001010101000010111000011100111001000011101101100000011001010100000100010110000011010110001111101011011000010111001010000110100001000100111101101000000111100110011001010000110010000110000011110010111010001101111000000011000001110010000011100000000011111111001010010111000000001000011100101010011101001000100011010101111010000010111001010111010000110101101100010100001010111101010000101111111101111011010100000100100010001100011100001100100111011010010000000100100110111100001111110011011001000111100011101010110011111001001010110010100011100101011101101001110111100111101110111011101001111110101100010101110111001010101000111001000010110101100001001001010110010010101101011010100100000101101010001111010101111101010000110011111000100100011010111111100010101100110100100101100011111110100110111101000010100100011100000010101011011010000110111010010011001110110011110101011110111100001100011010101100101011010100111001000101100110100001100011010110001011011001011010110010111110110000001101000001010011001110011011011111011011011000001100101001010101111010010100100010100001100000111011110100100101011000110110011111000111101001101101100110011110011100001101011101011111110001011101001111011111011000111111100010110101001110101000011101011110110000101000010010011100001111010010000110011010111011010011110111110111010110001110110111000111000001100010010111001010111100011011011010010101001100011100101010111010101110010111110001011100011101011100101010101101011001000000101011011110000111100000101101011110111010110100010010100001100010001010001110101101111111001101111010110000010000110011010100011000010110100100110111110111110110101111001011000001111000111101001110010111001001000100110000100000001001101111011101110111011011000000100011110100001111010101101100110111110101001110010010000111100110001101001111100101101000110110110000100110010000001101010001001101100011010011011111010110000111101100001100010101010001001100011101100010011000101101111001100010101100000110101001110110000101101011110111101011000010100111101010000011101010011010000101010111111110000011010110000010011001110010010011000010010101100100011010010111011101100110010000001100011001100110001010111111011110011111001111111001110000001100101010101110000110001101100000110001111000001000000110101111100100010010001101111101011100010001110110110010101100001110011010101010011010011001001110111100111010011111000100000111111001010110011101001011011000011111000011010011111001100011010000100001111010101001110011110110110110101000010100111110000001010011000000000110101111111111111110100100100111110101011110100011001011010001100110110001011010011110111110010101110110000101001100110101100111010000010000001111110100110100001101100111111001110110101011001111001110001111001000010111011100010001000011101001011000010100011011011011111011000101100100001100100001110000000010101101001111000010100010010011011101001101101100111110111110001010100110000110010101101010000000010001100101000011101000100100100110101111011110010110100001011010100010111001000011010010111100110011001101000001000001001111000001001101001011011011011100001011110000100011110011110101101000011011000001010011011001110100100101000000100111110010110100010000110110011000111010011001001001000010111011011110111100000111111100110011010101111101111100010110001010111001110001110110110111111010001101001101001010001000111100101101001110110011001101001111001111000011001000100001001110010100110111010110001001101010010110101110011010110011111011000011101010110001110111000000100111101000111101010001111011000011101011001111110110101000000000110011111010101110001111010010000101011000010011010101100111111101110010010011100110001010111000111010011011111100011110111010011111110100011111110000111010001010110100101010001011000100010111000010010111010101101101100111111111010011011001111011101001110100001010111010101100011011110100101100111100110000111011100110110000011101111101110111001011000010011110101001110001101100001000001100111111000101001010010111111101100011110000110011010111000111111110111110101000111000101010101001010101111011010010000100010110011011101010011010101111111010010001111000100001111011100001111111000110000001110111010010001110011010110110000111010000100010111010001000001010000000010101110011110010110000000000010000111110101110101101101110011001010111100011001111111000000100001010000001101001110